<?xml version="1.0" encoding="utf-8"?>
<!-- Generator: Adobe Illustrator 23.0.1, SVG Export Plug-In . SVG Version: 6.00 Build 0)  -->
<svg version="1.1" id="Layer_1" xmlns="http://www.w3.org/2000/svg" xmlns:xlink="http://www.w3.org/1999/xlink" x="0px" y="0px"
	 viewBox="0 0 30 30" style="enable-background:new 0 0 30 30;" xml:space="preserve">
<style type="text/css">
	.st0{fill:#37393B;}
</style>
<g>
	<polygon class="st0" points="18.7,5.9 16,8.6 16,0 14,0 14,8.6 11.3,5.9 9.9,7.3 15,12.4 20.1,7.3 	"/>
	<polygon class="st0" points="20.1,22.7 15,17.6 9.9,22.7 11.3,24.1 14,21.4 14,30 16,30 16,21.4 18.7,24.1 	"/>
	<polygon class="st0" points="7.3,9.9 5.9,11.3 8.6,14 0,14 0,16 8.6,16 5.9,18.7 7.3,20.1 12.4,15 	"/>
	<polygon class="st0" points="30,14 21.4,14 24.1,11.3 22.7,9.9 17.6,15 22.7,20.1 24.1,18.7 21.4,16 30,16 	"/>
</g>
</svg>
