<?xml version="1.0" encoding="utf-8"?>
<!-- Generator: Adobe Illustrator 23.0.1, SVG Export Plug-In . SVG Version: 6.00 Build 0)  -->
<svg version="1.1" id="Layer_1" xmlns="http://www.w3.org/2000/svg" xmlns:xlink="http://www.w3.org/1999/xlink" x="0px" y="0px"
	 viewBox="0 0 30 30" style="enable-background:new 0 0 30 30;" xml:space="preserve">
<style type="text/css">
	.st0{fill:#37393B;}
</style>
<g>
	<polygon class="st0" points="13.4,12 6.1,4.7 10,4.7 10,2.7 2.7,2.7 2.7,10 4.7,10 4.7,6.1 12,13.4 	"/>
	<polygon class="st0" points="20,2.7 20,4.7 23.9,4.7 16.6,12 18,13.4 25.3,6.1 25.3,10 27.3,10 27.3,2.7 	"/>
	<polygon class="st0" points="13.4,18 12,16.6 4.7,23.9 4.7,20 2.7,20 2.7,27.3 10,27.3 10,25.3 6.1,25.3 	"/>
	<polygon class="st0" points="25.3,20 25.3,23.9 18,16.6 16.6,18 23.9,25.3 20,25.3 20,27.3 27.3,27.3 27.3,20 	"/>
</g>
</svg>
