<?xml version="1.0" encoding="utf-8"?>
<!-- Generator: Adobe Illustrator 19.2.1, SVG Export Plug-In . SVG Version: 6.00 Build 0)  -->
<svg version="1.1" id="Layer_1" xmlns="http://www.w3.org/2000/svg" xmlns:xlink="http://www.w3.org/1999/xlink" x="0px" y="0px"
	 width="20px" height="20px" viewBox="0 0 20 20" style="enable-background:new 0 0 20 20;" xml:space="preserve">
<style type="text/css">
	.st0{fill-rule:evenodd;clip-rule:evenodd;}
</style>
<path class="st0" d="M7.5,1.3C5.8,1.8,4.2,2.8,3.1,4.1c0.7,0.3,1.4,0.6,2.1,0.8C5.4,4.3,5.7,3.7,6,3.2C6.4,2.5,6.9,1.8,7.5,1.3
	 M7.5,18.7c-0.6-0.5-1.1-1.2-1.5-1.9c-0.3-0.5-0.5-1.1-0.8-1.7c-0.7,0.2-1.4,0.5-2.1,0.8C4.2,17.2,5.8,18.2,7.5,18.7z M17,15.8
	c-0.7-0.3-1.4-0.6-2.2-0.8c-0.2,0.6-0.5,1.2-0.8,1.8c-0.4,0.7-0.9,1.4-1.5,1.9C14.3,18.2,15.8,17.2,17,15.8z M12.5,1.3
	c0.6,0.5,1.1,1.2,1.5,1.9c0.3,0.6,0.6,1.2,0.8,1.8c0.7-0.2,1.5-0.5,2.2-0.8C15.8,2.8,14.3,1.8,12.5,1.3z M9.5,5.7V1.2
	C8.3,1.5,7.4,2.6,6.8,3.7c-0.3,0.5-0.5,1-0.7,1.5C7.3,5.5,8.4,5.6,9.5,5.7z M6.2,14.8c0.2,0.5,0.4,1,0.7,1.5c0.6,1,1.5,2.2,2.7,2.4
	v-4.4C8.4,14.4,7.3,14.5,6.2,14.8z M10.5,14.3v4.4c1.2-0.2,2.1-1.4,2.7-2.4c0.3-0.5,0.5-1,0.7-1.6C12.7,14.5,11.6,14.4,10.5,14.3z
	 M13.9,5.2c-0.2-0.5-0.4-1.1-0.7-1.6c-0.6-1-1.5-2.2-2.7-2.4v4.4C11.6,5.6,12.7,5.5,13.9,5.2z M2.5,15.1c0.8-0.4,1.6-0.7,2.5-1
	c-0.3-1.2-0.5-2.5-0.5-3.8H0.9C1,12.1,1.5,13.7,2.5,15.1z M9.5,10.4H5.4c0,1.2,0.2,2.4,0.5,3.5c1.2-0.3,2.4-0.5,3.6-0.5V10.4z
	 M14.1,13.9c0.3-1.1,0.4-2.3,0.5-3.5h-4.1v3C11.7,13.4,12.9,13.6,14.1,13.9z M19.1,10.4h-3.5c0,1.3-0.2,2.5-0.5,3.8
	c0.9,0.3,1.7,0.6,2.5,0.9C18.5,13.7,19,12,19.1,10.4z M15,5.9c0.3,1.2,0.5,2.4,0.5,3.5h3.5C19,7.8,18.4,6.3,17.5,5
	C16.7,5.3,15.9,5.6,15,5.9z M10.5,9.4h4.1c0-1.1-0.2-2.2-0.5-3.3c-1.2,0.3-2.4,0.5-3.7,0.5V9.4z M5.9,6.1C5.6,7.2,5.4,8.3,5.4,9.4
	h4.1V6.6C8.3,6.6,7.1,6.4,5.9,6.1z M2.5,4.9C1.6,6.2,1,7.8,0.9,9.4h3.5C4.5,8.2,4.7,7,5,5.8C4.1,5.6,3.3,5.2,2.5,4.9z M10,0
	c5.5,0,10,4.5,10,10s-4.5,10-10,10S0,15.5,0,10S4.5,0,10,0z"/>
</svg>
